<svg width="29" height="19" viewBox="0 0 29 19" fill="none" xmlns="http://www.w3.org/2000/svg">
<path d="M18.3239 14.2375C19.1118 14.2375 19.892 14.0823 20.62 13.7808C21.3479 13.4793 22.0094 13.0373 22.5665 12.4802C23.1237 11.923 23.5656 11.2616 23.8671 10.5336C24.1687 9.80569 24.3239 9.02547 24.3239 8.23754C24.3239 7.44961 24.1687 6.6694 23.8671 5.94144C23.5656 5.21349 23.1237 4.55205 22.5665 3.9949C22.0094 3.43775 21.3479 2.99579 20.62 2.69427C19.892 2.39274 19.1118 2.23754 18.3239 2.23754C16.7326 2.23754 15.2064 2.86968 14.0812 3.9949C12.956 5.12012 12.3239 6.64624 12.3239 8.23754C12.3239 9.82884 12.956 11.355 14.0812 12.4802C15.2064 13.6054 16.7326 14.2375 18.3239 14.2375ZM24.6439 13.1435L28.2239 16.7235C28.3193 16.8159 28.3954 16.9263 28.4477 17.0483C28.5001 17.1703 28.5275 17.3016 28.5286 17.4344C28.5297 17.5671 28.5043 17.6988 28.4539 17.8217C28.4035 17.9445 28.3292 18.0561 28.2352 18.1499C28.1413 18.2438 28.0296 18.3179 27.9067 18.3681C27.7837 18.4183 27.652 18.4435 27.5192 18.4423C27.3865 18.441 27.2553 18.4134 27.1333 18.3609C27.0113 18.3084 26.901 18.2321 26.8089 18.1365L23.2289 14.5565C21.6213 15.8044 19.5987 16.3927 17.5726 16.2017C15.5466 16.0108 13.6695 15.0549 12.3234 13.5286C10.9774 12.0024 10.2636 10.0205 10.3273 7.98647C10.391 5.95244 11.2275 4.01917 12.6665 2.58019C14.1055 1.14121 16.0388 0.30471 18.0728 0.240969C20.1068 0.177228 22.0887 0.891039 23.6149 2.23709C25.1412 3.58315 26.0971 5.46026 26.2881 7.4863C26.479 9.51234 25.8907 11.535 24.6429 13.1425L24.6439 13.1435Z" fill="#181725"/>
<rect x="0.179321" y="0.23704" width="8.85499" height="2.39923" rx="1.19961" fill="#181725"/>
<rect x="0.179321" y="7.67523" width="6.46414" height="2.39923" rx="1.19961" fill="#181725"/>
<rect x="0.179321" y="15.1138" width="8.85499" height="2.39923" rx="1.19961" fill="#181725"/>
</svg>
